# xmcd CD database file
#
# Track frame offsets:
#	150
#	18935
#	34570
#	50696
#	70681
#	80416
#	94373
#	109349
#	125183
#	134377
#	146093
#	161704
#	175911
#	187960
#	207196
#	223339
#	237020
#	253619
#
# Disc length: 3583 seconds
#
# Revision: 0
# Processed by: cddbd v1.5.2PL0 Copyright (c) Steve Scherf et al.
# Submitted via: CDex 1.51
#
DISCID=0b0dfd12
DTITLE=Alabama - Songs of Inspiration
DYEAR=2006
DGENRE=Country
TTITLE0=His Eye Is On The Sparrow
TTITLE1=In The Garden
TTITLE2=Amazing Grace
TTITLE3=How Great Thou Art
TTITLE4=I Need Thee
TTITLE5=Old Shep
TTITLE6=Jesus Loves me
TTITLE7=Silent Night
TTITLE8=I Am The Man Thomas
TTITLE9=Rock Of Ages
TTITLE10=In The Sweet By And By
TTITLE11=The Old Rugged Cross
TTITLE12=What Will I Leave Behind
TTITLE13=One Big Heaven
TTITLE14=Rain
TTITLE15=Church In The Wildwood
TTITLE16=John Dillion James
TTITLE17=If I Could Hear My Mother Pray
EXTD=YEAR: 2006
EXTT0=
EXTT1=
EXTT2=
EXTT3=
EXTT4=
EXTT5=
EXTT6=
EXTT7=
EXTT8=
EXTT9=
EXTT10=
EXTT11=
EXTT12=
EXTT13=
EXTT14=
EXTT15=
EXTT16=
EXTT17=
PLAYORDER=
